<svg id="calendar" xmlns="http://www.w3.org/2000/svg" width="28.435" height="28.435" viewBox="0 0 28.435 28.435">
  <path id="Path_75" data-name="Path 75" d="M22.511,2.37H21.327V1.185a1.185,1.185,0,0,0-2.37,0V2.37H9.478V1.185a1.185,1.185,0,1,0-2.37,0V2.37H5.924A5.931,5.931,0,0,0,0,8.294V22.511a5.931,5.931,0,0,0,5.924,5.924H22.511a5.931,5.931,0,0,0,5.924-5.924V8.294A5.931,5.931,0,0,0,22.511,2.37ZM2.37,8.294A3.554,3.554,0,0,1,5.924,4.739H22.511a3.554,3.554,0,0,1,3.554,3.554V9.478H2.37ZM22.511,26.066H5.924A3.554,3.554,0,0,1,2.37,22.511V11.848h23.7V22.511A3.554,3.554,0,0,1,22.511,26.066Z" fill="#8e8e8e"/>
  <circle id="Ellipse_10" data-name="Ellipse 10" cx="1.777" cy="1.777" r="1.777" transform="translate(12.44 15.995)" fill="#8e8e8e"/>
  <circle id="Ellipse_11" data-name="Ellipse 11" cx="1.777" cy="1.777" r="1.777" transform="translate(6.516 15.995)" fill="#8e8e8e"/>
  <circle id="Ellipse_12" data-name="Ellipse 12" cx="1.777" cy="1.777" r="1.777" transform="translate(18.365 15.995)" fill="#8e8e8e"/>
</svg>
