<svg xmlns="http://www.w3.org/2000/svg" width="29.341" height="29.341" viewBox="0 0 29.341 29.341">
  <path id="time-quarter-past" d="M29.341,14.67a1.223,1.223,0,1,1-2.445,0A12.239,12.239,0,0,0,14.67,2.445,1.223,1.223,0,1,1,14.67,0,14.686,14.686,0,0,1,29.341,14.67Zm-9.78,1.223a1.223,1.223,0,1,0,0-2.445H16.777a2.445,2.445,0,0,0-.884-.884V8.558a1.223,1.223,0,0,0-2.445,0v4.006a2.438,2.438,0,1,0,3.329,3.329ZM2.234,8.294A1.223,1.223,0,1,0,3.456,9.516,1.223,1.223,0,0,0,2.234,8.294Zm.211,6.377a1.223,1.223,0,1,0-1.223,1.223A1.223,1.223,0,0,0,2.445,14.67ZM14.67,26.9a1.223,1.223,0,1,0,1.223,1.223A1.223,1.223,0,0,0,14.67,26.9ZM5.16,3.921A1.223,1.223,0,1,0,6.383,5.143,1.223,1.223,0,0,0,5.16,3.921ZM9.51,1.028a1.223,1.223,0,1,0,1.223,1.223A1.223,1.223,0,0,0,9.51,1.028ZM2.234,18.6a1.223,1.223,0,1,0,1.223,1.223A1.223,1.223,0,0,0,2.234,18.6ZM5.16,22.975A1.223,1.223,0,1,0,6.383,24.2,1.223,1.223,0,0,0,5.16,22.975Zm4.35,2.893a1.223,1.223,0,1,0,1.223,1.223A1.223,1.223,0,0,0,9.51,25.868Zm17.6-7.266a1.223,1.223,0,1,0,1.223,1.223A1.223,1.223,0,0,0,27.107,18.6Zm-2.927,4.373A1.223,1.223,0,1,0,25.4,24.2,1.223,1.223,0,0,0,24.181,22.975Zm-4.35,2.893a1.223,1.223,0,1,0,1.223,1.223A1.223,1.223,0,0,0,19.831,25.868Z" fill="#8e8e8e"/>
</svg>
