<svg xmlns="http://www.w3.org/2000/svg" width="29.959" height="27.491" viewBox="0 0 29.959 27.491">
  <path id="graduation-cap" d="M27.532,6.735l-9.2-4.385a6.523,6.523,0,0,0-6.594-.056L2.425,6.735c-.035.017-.071.036-.1.056a4.607,4.607,0,0,0,.1,8.057l2.568,1.223v6.116a6.25,6.25,0,0,0,4.393,5.964,19.419,19.419,0,0,0,5.593.764,19.42,19.42,0,0,0,5.593-.758,6.25,6.25,0,0,0,4.393-5.964V16.069l2.5-1.193v10.3a1.248,1.248,0,1,0,2.5,0V10.193A4.179,4.179,0,0,0,27.532,6.735Zm-5.064,15.46a3.745,3.745,0,0,1-2.621,3.574,16.966,16.966,0,0,1-4.868.652,16.966,16.966,0,0,1-4.868-.652,3.745,3.745,0,0,1-2.621-3.574V17.261l4.14,1.972a6.581,6.581,0,0,0,3.377.922,6.241,6.241,0,0,0,3.217-.866l4.245-2.028Zm3.994-9.6-9.414,4.494a4.112,4.112,0,0,1-4.232-.056L3.606,12.652A2.112,2.112,0,0,1,3.56,8.959l9.356-4.469a4.119,4.119,0,0,1,4.232.056l9.2,4.385a2.157,2.157,0,0,1,1.11,1.86,2.122,2.122,0,0,1-1,1.8Z" transform="translate(0.001 -1.427)" fill="#8e8e8e"/>
</svg>
  