<svg xmlns="http://www.w3.org/2000/svg" width="29.702" height="29.736" viewBox="0 0 29.702 29.736">
  <path id="mug-hot-alt" d="M24.78,12.39h-.142a3.841,3.841,0,0,0-3.575-4.956H3.717c-6.754.461-2.478,10.719-.73,13.52A8.521,8.521,0,0,0,10.18,24.78H14.6a8.518,8.518,0,0,0,7.114-3.717H24.78C30.745,20.948,31.916,12.17,24.78,12.39ZM14.6,22.3H10.18a6.048,6.048,0,0,1-5.118-2.7c-.674-.646-4.449-9.69-1.344-9.69H21.063a1.206,1.206,0,0,1,.9.4,1.274,1.274,0,0,1,.323.991C21.592,16.583,20.28,22.068,14.6,22.3ZM24.78,18.585H23.031a20.84,20.84,0,0,0,1.182-3.717c1.5-.1,3.155.268,3.045,1.416a2.458,2.458,0,0,1-2.478,2.3ZM11.182,3.717V1.239a1.239,1.239,0,0,1,2.478,0V3.717a1.239,1.239,0,0,1-2.478,0Zm4.956,0V1.239a1.239,1.239,0,1,1,2.478,0V3.717a1.239,1.239,0,1,1-2.478,0Zm-9.912,0V1.239a1.239,1.239,0,0,1,2.478,0V3.717a1.239,1.239,0,0,1-2.478,0ZM24.78,28.5a1.239,1.239,0,0,1-1.239,1.239H1.239a1.239,1.239,0,0,1,0-2.478h22.3A1.239,1.239,0,0,1,24.78,28.5Z" fill="#8e8e8e"/>
</svg>
