<svg xmlns="http://www.w3.org/2000/svg" width="29.274" height="26.834" viewBox="0 0 29.274 26.834">
  <path id="computer" d="M23.175,3H6.1A6.106,6.106,0,0,0,0,9.1v9.758a6.106,6.106,0,0,0,6.1,6.1h7.318v2.439H8.538a1.22,1.22,0,0,0,0,2.439h12.2a1.22,1.22,0,0,0,0-2.439H15.857V24.955h7.318a6.106,6.106,0,0,0,6.1-6.1V9.1a6.106,6.106,0,0,0-6.1-6.1ZM6.1,5.439H23.175A3.659,3.659,0,0,1,26.834,9.1v8.538H2.439V9.1A3.659,3.659,0,0,1,6.1,5.439ZM23.175,22.516H6.1a3.659,3.659,0,0,1-3.435-2.439H26.61A3.659,3.659,0,0,1,23.175,22.516Z" transform="translate(0 -3)" fill="#8e8e8e"/>
</svg>
